<?xml version="1.0" encoding="utf-8"?>
<!-- Generator: Adobe Illustrator 16.0.3, SVG Export Plug-In . SVG Version: 6.00 Build 0)  -->
<!DOCTYPE svg PUBLIC "-//W3C//DTD SVG 1.1//EN" "http://www.w3.org/Graphics/SVG/1.1/DTD/svg11.dtd">
<svg version="1.1" id="Layer_1" xmlns="http://www.w3.org/2000/svg" xmlns:xlink="http://www.w3.org/1999/xlink" x="0px" y="0px"
	 width="289.678px" height="194.193px" viewBox="0 0 289.678 194.193" enable-background="new 0 0 289.678 194.193"
	 xml:space="preserve">
<path fill="#B6A989" d="M25.271,166.13"/>
<g>
	<g>
		<polygon fill="#FFFFFF" points="248.183,158.819 261.921,159.37 258.075,150.028 		"/>
		<polygon fill="#FFFFFF" points="208.067,175.218 216.31,185.659 222.354,171.37 		"/>
	</g>
	<path opacity="0.7" fill="#F8F2E8" d="M197.077,23.727c0,0-33.521-0.55-31.322,54.402c0,0,49.457,15.387,84.625-8.242
		c0,0-7.693-37.917-34.619-42.863L197.077,23.727z"/>
	<path fill="#EABB98" d="M213.522,66.995c4.74-1.326,8.717-3.634,11.363-6.545c1.602-0.021,3.582-1.737,4.795-4.322
		c1.443-3.081,1.25-6.218-0.434-7.005c-0.389-0.183-0.822-0.218-1.277-0.136c-2.123-7.5-11.945-13.171-23.75-13.171
		c-10.541,0-19.502,4.524-22.811,10.834c-0.584-0.468-1.221-0.698-1.852-0.604c-1.84,0.271-2.943,3.129-2.463,6.383
		c0.48,3.255,2.359,5.674,4.199,5.403c0.105-0.016,0.207-0.042,0.307-0.073c2.277,4.039,6.9,7.3,12.748,9.059l-36.838,27.249
		l35.17-18.685h19.234l49.604,8.532L213.522,66.995z"/>
	<path fill="#FFFFFF" d="M172.269,83.15l-14.758,10.916l16.252-8.634C173.239,84.684,172.737,83.924,172.269,83.15z"/>
	<path fill="#FFFFFF" d="M261.519,83.914l-22.748-8.019c-0.41,1.299-0.824,2.596-1.238,3.893L261.519,83.914z"/>
	<path fill="#FFFFFF" d="M199.274,100.063l-6.594-24.682c0,0,6.656-3.254,9.066-3.297c2.674-0.047,10.168,3.297,10.168,3.297
		l-1.102,21.569L199.274,100.063z"/>
	<path fill="#352013" d="M216.28,26.435c2.631-3.09,13.625-17.417-5.467-20.843c-19.139-3.435-14.805,14.445-13.883,17.647
		c-21.479,2.294-16.889,25.49-16.889,25.49s15.936,1.374,24.178-12.915c0,0,5.084,15.525,24.316,16.624
		C228.536,52.439,231.409,34.171,216.28,26.435z"/>
	<ellipse fill="#352013" cx="194.654" cy="49.657" rx="2.138" ry="2.318"/>
	<ellipse fill="#352013" cx="212.798" cy="50.688" rx="2.139" ry="2.318"/>
	<path fill="#FFFFFF" d="M217.478,25.903c1.143-0.735,4.666-3.614,2.748-5.114c-1.508-1.179-5.436,2.122-5.223,3.419
		c0.027-1.678-0.551-5.521-2.84-4.222c-1.609,0.914-0.873,5.335,0.16,6.65c-1.16-1.874-5.729-1.671-6.104,0.272
		c-0.648,3.384,4.559,3.516,6.611,2.323c-1.383,1.631-3.459,4.329-1.461,5.751c0.197,0.139,2.207,0.152,2.457,0.019
		c0.646-0.345,1.227-1.346,1.471-2.283c0.189,1.554,0.9,3.338,2.309,3.177c2.871-0.327,1.846-5.756,0.783-7.019
		c1.406,1.285,4.037,1.111,4.43-0.706C223.495,25.065,219.425,24.567,217.478,25.903z"/>
	<g>
		<path fill="#FFF8EA" d="M189.384,179.243c0,0-23.08-69.242,13.188-80.781c36.27-11.541,67.045,29.673,67.045,29.673
			S259.724,177.044,189.384,179.243z"/>
		<g>
			<path fill="#352013" d="M123.028,128.544l-4.535-44.924l41.215,10.304l-41.627-25.142l-39.154,5.77l-41.768,28.538l41.357-13.288
				l-1.238,36.68l2.814,0.127l-20.535,36.555l-16.486,5.357l21.844,5.771v-8.656c0,0,33.797-35.031,33.797-33.795s0,51.93,0,51.93
				l21.018-1.236l-12.775-6.594l11.299-47.611L123.028,128.544z"/>
			<polygon fill="#E2D4C0" points="83.021,65.286 100.226,111.611 107.749,64.461 			"/>
			<g>
				<path fill="#EABB98" d="M126.269,37.089c-0.598-4.055-3.457-6.99-6.383-6.559c-1.178,0.174-2.186,0.874-2.934,1.905
					c-5.732-5.128-16.318-6.698-27.066-3.32c-11.529,3.627-19.65,11.824-20.58,19.858c-1.785-0.801-3.639-0.804-5.008,0.182
					c-2.404,1.727-2.416,5.824-0.025,9.15c2.391,3.329,6.277,4.627,8.68,2.899c0.371-0.265,0.676-0.591,0.932-0.956
					c5.799,4.908,16.203,6.358,26.75,3.041c10.686-3.36,18.441-10.642,20.266-18.084c0.379,0.056,0.764,0.061,1.15,0.004
					C124.978,44.777,126.864,41.142,126.269,37.089z"/>
				<g>
					<ellipse fill="#352013" cx="85.883" cy="45.083" rx="2.138" ry="2.318"/>
					<ellipse fill="#352013" cx="103.579" cy="40.344" rx="2.139" ry="2.317"/>
				</g>
				<path fill="#352013" d="M69.448,52.296c0,0,2.061-14.838,19.371-21.433c17.311-6.594,32.971,8.244,32.971,8.244
					s-2.6-27.425-36.266-31.26C85.524,7.848,53.374,31.277,69.448,52.296z"/>
			</g>
			<path fill="#675F5B" d="M83.874,65.073l-8.285,8.243c0,0,8.551,29.627,24.211,37.87L83.874,65.073z"/>
			<path fill="#675F5B" d="M105.065,61.59l-4.84,50.021c0,0,13.734-23.458,17.855-42.829L105.065,61.59z"/>
			<polygon fill="#FFFFFF" points="97.247,63.836 82.638,58.89 86.347,76.201 97.886,67.133 111.899,72.904 109.427,55.509 			"/>
		</g>
		<g>
			
				<rect x="8.455" y="102.918" transform="matrix(-0.0593 -0.9982 0.9982 -0.0593 -61.6503 153.3665)" fill="#352013" width="65.965" height="5.627"/>
			
				<rect x="10.149" y="95.234" transform="matrix(-0.0593 -0.9982 0.9982 -0.0593 -78.6371 141.1223)" fill="#352013" width="34.052" height="24.759"/>
			
				<rect x="31.838" y="90.105" transform="matrix(-0.9982 0.0594 -0.0594 -0.9982 76.8493 211.9805)" fill="#675F5B" width="6.877" height="34.053"/>
		</g>
		<g>
			<path fill="#FFFFFF" d="M202.571,98.462c0,0,12.719,43.177-16.281,65.177C186.29,163.64,166.854,113.285,202.571,98.462z"/>
			<path fill="#FFFFFF" d="M261.29,116.64c0,0-26.436,19.646-58.719-18.177C202.571,98.462,237.29,83.64,261.29,116.64z"/>
		</g>
	</g>
	<g>
		<path fill="#FFFFFF" d="M267.165,94.035c0,0,2.959,9.354,8.012,13.061l2.678-1.509c0,0-9.205-9.832-9.768-13.015L267.165,94.035z"
			/>
		<path fill="#FFF8EA" d="M265.366,92.482l-1.633-1.396c-0.48,0.013-5.016,16.274,4.01,25.313l4.559-2.995
			C272.302,113.403,263.542,102.279,265.366,92.482z"/>
		<path fill="#FFFFFF" d="M281.655,75.943c3.574-2.998-3.486-3.594-5.379-3.304c1.053-0.162,0.406-3.104-0.152-3.525
			c-1.26-0.944-3.49,0.059-4.584,0.775c0.611-1.622,0.648-3.515-1.541-3.513c-2.217,0.002-3.75,2.388-4.672,4.083
			c0.02-1.525-0.422-3.741-2.436-3.332c-2.225,0.455-2.211,3.408-1.822,5.08c-0.486-1.426-1.465-3.492-3.195-2.212
			c-1.773,1.313-0.809,4.046,0,5.578c-1.143-0.493-3.432-1.503-4.473-0.323c-1.035,1.173,0.273,3.044,1.061,3.966
			c-2.043,1.639-3.025,4.307-0.01,5.395c-1.041,0.958-1.85,2.504-0.633,3.672c1.389,1.331,3.758,0.322,5.33-0.049
			c-1.664,1.252-2.744,4.066-0.154,4.953c1.771,0.606,4.037-0.314,5.295-1.548c-0.709,1.308-1.377,4.362,0.771,4.353
			c1.492-0.008,2.781-1.715,3.699-2.682c-0.346,1.388-0.365,4.057,1.623,4.165c1.85,0.101,2.908-2.698,3.406-4.069
			c3.203,3.082,4.457-1.053,4.953-3.928c0.793,2.338,3.467,1.302,4.357-0.439c1.182-2.309-0.689-5.383-1.811-7.363
			c1.533,0.649,2.762,0.306,2.984-1.464C284.509,78.328,283.132,76.852,281.655,75.943z"/>
	</g>
</g>
</svg>
